<?xml version="1.0" encoding="UTF-8"?>
<svg version="1.1" xmlns="http://www.w3.org/2000/svg" width="1024" height="1024">
<path d="M0 0 C1.89425653 0.00056587 3.7885135 0.00024413 5.68276978 -0.00088501 C10.76422606 -0.00145266 15.84558556 0.01020505 20.9270196 0.02426291 C26.26008758 0.03686963 31.59315843 0.03794853 36.92623901 0.04031372 C46.99796177 0.04649954 57.06964048 0.06287064 67.14134395 0.0830127 C80.7704736 0.10967036 94.39961553 0.12036779 108.02876472 0.13201714 C129.46305706 0.1507537 150.89725648 0.19061857 172.33154297 0.22705078 C172.33154297 45.76705078 172.33154297 91.30705078 172.33154297 138.22705078 C93.79154297 138.22705078 15.25154297 138.22705078 -65.66845703 138.22705078 C-65.66845703 182.77705078 -65.66845703 227.32705078 -65.66845703 273.22705078 C12.87154297 273.22705078 91.41154297 273.22705078 172.33154297 273.22705078 C172.33154297 318.76705078 172.33154297 364.30705078 172.33154297 411.22705078 C93.79154297 411.22705078 15.25154297 411.22705078 -65.66845703 411.22705078 C-65.66845703 523.75705078 -65.66845703 636.28705078 -65.66845703 752.22705078 C12.87154297 752.22705078 91.41154297 752.22705078 172.33154297 752.22705078 C172.33154297 797.43705078 172.33154297 842.64705078 172.33154297 889.22705078 C-165.58845703 889.22705078 -503.50845703 889.22705078 -851.66845703 889.22705078 C-851.66845703 844.01705078 -851.66845703 798.80705078 -851.66845703 752.22705078 C-777.41845703 752.22705078 -703.16845703 752.22705078 -626.66845703 752.22705078 C-626.66845703 639.69705078 -626.66845703 527.16705078 -626.66845703 411.22705078 C-689.69845703 411.22705078 -752.72845703 411.22705078 -817.66845703 411.22705078 C-817.66845703 365.68705078 -817.66845703 320.14705078 -817.66845703 273.22705078 C-704.80845703 273.22705078 -591.94845703 273.22705078 -475.66845703 273.22705078 C-475.66845703 431.29705078 -475.66845703 589.36705078 -475.66845703 752.22705078 C-390.19845703 752.22705078 -304.72845703 752.22705078 -216.66845703 752.22705078 C-216.66845703 639.69705078 -216.66845703 527.16705078 -216.66845703 411.22705078 C-268.47845703 411.22705078 -320.28845703 411.22705078 -373.66845703 411.22705078 C-373.66845703 365.68705078 -373.66845703 320.14705078 -373.66845703 273.22705078 C-321.85845703 273.22705078 -270.04845703 273.22705078 -216.66845703 273.22705078 C-216.99845703 250.45705078 -217.32845703 227.68705078 -217.66845703 204.22705078 C-215.3128441 178.31530849 -215.3128441 178.31530849 -213.54345703 169.85205078 C-213.32955322 168.82080078 -213.11564941 167.78955078 -212.89526367 166.72705078 C-207.11154075 140.17643163 -196.20568023 114.55997206 -180.66845703 92.22705078 C-180.22066895 91.58010254 -179.77288086 90.9331543 -179.31152344 90.26660156 C-171.6859278 79.3861462 -163.03390741 69.6354272 -153.66845703 60.22705078 C-153.13140137 59.6859668 -152.5943457 59.14488281 -152.04101562 58.58740234 C-131.56561648 38.22177355 -106.48575569 23.56586699 -79.66845703 13.22705078 C-78.91532227 12.93604492 -78.1621875 12.64503906 -77.38623047 12.34521484 C-68.32696546 8.92228828 -59.13461287 6.49998414 -49.66845703 4.47705078 C-48.28243286 4.17879395 -48.28243286 4.17879395 -46.8684082 3.87451172 C-31.29262234 0.73539387 -15.83831881 -0.06747192 0 0 Z " fill="#0032FF" transform="translate(851.66845703125,84.77294921875)"/>
<path d="M0 0 C19.65261041 16.84918126 27.52591532 39.93907275 29.9375 65 C30.06058721 66.91554466 30.16535986 68.83237182 30.25 70.75 C30.29125 71.65363281 30.3325 72.55726563 30.375 73.48828125 C30.99325586 101.42571803 24.26003524 128.56003095 4.78515625 149.37109375 C-18.1583105 170.90047934 -48.17312917 173.56299003 -78.05859375 172.88183594 C-102.62299853 172.00453577 -124.71961428 162.58299595 -141.75 144.75 C-160.02822189 123.14215895 -164.41530342 92.94024444 -162.47265625 65.55078125 C-160.35448657 40.4420476 -152.25551728 16.69124696 -132.5390625 -0.15625 C-96.61551706 -27.12406563 -35.81887412 -27.85912432 0 0 Z " fill="#0032FF" transform="translate(366.75,104.25)"/>
</svg>
