<?xml version="1.0" encoding="UTF-8"?>
<svg version="1.1" xmlns="http://www.w3.org/2000/svg" width="225" height="225">
<path d="M0 0 C74.25 0 148.5 0 225 0 C225 74.25 225 148.5 225 225 C150.75 225 76.5 225 0 225 C0 150.75 0 76.5 0 0 Z " fill="#F05237" transform="translate(0,0)"/>
<path d="M0 0 C10.00535849 6.25334906 16.78611255 15.19162612 19.57647705 26.7093811 C20.32827419 30.77546709 20.32550971 34.824414 20.3359375 38.94921875 C20.3459227 40.35093071 20.3459227 40.35093071 20.35610962 41.78096008 C20.36618632 43.75003101 20.37092819 45.71913574 20.37060547 47.68823242 C20.37496247 50.66188535 20.41129098 53.63403236 20.44921875 56.60742188 C20.54079179 71.99137078 19.25010928 84.30263269 8.22265625 95.86328125 C-0.26778382 103.97173834 -8.89793523 106.71273877 -20.43041992 106.52368164 C-30.35916159 106.0696585 -36.85958963 102.82995774 -44 96 C-42.61811547 92.78956118 -41.07578097 90.95063635 -38.375 88.75 C-37.74335937 88.22921875 -37.11171875 87.7084375 -36.4609375 87.171875 C-35.73777344 86.59179688 -35.73777344 86.59179688 -35 86 C-34.42894531 86.3609375 -33.85789062 86.721875 -33.26953125 87.09375 C-26.20269441 91.1383625 -20.0778408 92.15397726 -12 91 C-8.99877085 89.9495698 -6.74012897 88.67452326 -4 87 C-3.01 86.67 -2.02 86.34 -1 86 C0.08431094 84.25132517 0.08431094 84.25132517 1 82 C1.50595703 81.18893799 2.01191406 80.37787598 2.53320312 79.54223633 C4.55819208 74.65199585 4.46770684 70.25616443 4.46875 65.01171875 C4.47636353 63.9539473 4.48397705 62.89617584 4.49182129 61.80635071 C4.50260307 59.57315423 4.50548324 57.33990741 4.50097656 55.10668945 C4.50000612 51.70893148 4.54161354 48.31344685 4.5859375 44.91601562 C4.59114649 42.73958801 4.59383266 40.5631526 4.59375 38.38671875 C4.61014526 37.38017746 4.62654053 36.37363617 4.64343262 35.33659363 C4.57721356 28.49815055 3.18769593 23.49203728 -1 18 C-7.05352402 12.49776379 -13.07634301 10.51929024 -21.21484375 10.68359375 C-27.84719534 11.43705866 -32.81657343 14.88692308 -37 20 C-41.15310751 25.96413472 -42.15222328 31.83833633 -41 39 C-38.98805779 44.879159 -36.41900965 49.69572582 -31 53 C-29.74123047 53.76957031 -29.74123047 53.76957031 -28.45703125 54.5546875 C-23.95582058 56.43654959 -19.95640609 56.56016626 -15.125 56.6875 C-14.24585938 56.72166016 -13.36671875 56.75582031 -12.4609375 56.79101562 C-10.30772295 56.8729314 -8.15388449 56.93815579 -6 57 C-6 61.95 -6 66.9 -6 72 C-18.72162689 72.43867679 -29.88840589 72.22045625 -40.19140625 63.6953125 C-47.36746281 56.96872816 -53.61402328 49.28319475 -54.23828125 39.12109375 C-54.54145388 26.3796495 -53.00999908 16.6521371 -44 7 C-31.57104743 -4.66556201 -15.5505359 -8.13523406 0 0 Z " fill="#FEFAFA" transform="translate(131,63)"/>
<path d="M0 0 C0.33 0 0.66 0 1 0 C1 34.98 1 69.96 1 106 C-33.98 106 -68.96 106 -105 106 C-105 105.67 -105 105.34 -105 105 C-104.01902344 104.90203125 -103.03804688 104.8040625 -102.02734375 104.703125 C-74.94421187 101.79773276 -52.70548159 91.85610738 -33 73 C-32.31421875 72.37738281 -31.6284375 71.75476563 -30.921875 71.11328125 C-20.51576151 61.34218649 -13.77461295 48.88433991 -8 36 C-7.25556641 34.33904297 -7.25556641 34.33904297 -6.49609375 32.64453125 C-2.29551097 22.14934384 -1.21811747 11.16784659 0 0 Z " fill="#FEFDFD" transform="translate(224,119)"/>
<path d="M0 0 C34.98 0 69.96 0 106 0 C106 34.65 106 69.3 106 105 C105.67 105 105.34 105 105 105 C104.86464844 103.70449219 104.72929687 102.40898438 104.58984375 101.07421875 C101.83216592 77.34604301 93.31181997 55.75186828 77 38 C76.55285645 37.51047852 76.10571289 37.02095703 75.64501953 36.51660156 C55.70024161 14.92174074 29.10479861 3.35315393 0 1 C0 0.67 0 0.34 0 0 Z " fill="#FEFDFD" transform="translate(119,0)"/>
<path d="M0 0 C0.33 0 0.66 0 1 0 C1.04898438 0.55647217 1.09796875 1.11294434 1.1484375 1.6862793 C4.11760686 32.98094041 17.33239137 59.12973868 41 80 C58.52081924 94.02550429 78.9757494 101.72035978 101 105 C101 105.33 101 105.66 101 106 C67.67 106 34.34 106 0 106 C0 71.02 0 36.04 0 0 Z " fill="#FEFDFD" transform="translate(0,119)"/>
<path d="M0 0 C33 0 66 0 100 0 C100 0.33 100 0.66 100 1 C99.42258057 1.11480713 98.84516113 1.22961426 98.25024414 1.34790039 C67.31917099 7.61866465 40.13965121 21.01256708 21.25 47.25 C9.5755343 64.9520431 3.59098625 83.0614607 1 104 C0.67 104 0.34 104 0 104 C0 69.68 0 35.36 0 0 Z " fill="#FEFDFD" transform="translate(0,0)"/>
</svg>
