<?xml version="1.0" encoding="UTF-8"?>
<svg version="1.1" xmlns="http://www.w3.org/2000/svg" width="225" height="225">
<path d="M0 0 C74.25 0 148.5 0 225 0 C225 74.25 225 148.5 225 225 C150.75 225 76.5 225 0 225 C0 150.75 0 76.5 0 0 Z " fill="#FEFEFE" transform="translate(0,0)"/>
<path d="M0 0 C0.70427124 -0.0049649 1.40854248 -0.00992981 2.13415527 -0.01504517 C4.46924815 -0.02967629 6.80427307 -0.03647087 9.1394043 -0.04199219 C10.76124575 -0.04774353 12.38308718 -0.05350127 14.00492859 -0.05926514 C17.40872515 -0.06977829 20.81249807 -0.07561867 24.21630859 -0.07910156 C28.57435485 -0.08458236 32.93208805 -0.1086 37.2900362 -0.13707352 C40.64180915 -0.15571469 43.99350697 -0.16090631 47.34532738 -0.16243744 C48.95166927 -0.16546193 50.55800991 -0.17348364 52.16430092 -0.18662262 C54.41446209 -0.20371202 56.66386243 -0.20179603 58.9140625 -0.1953125 C60.19376419 -0.19895813 61.47346588 -0.20260376 62.79194641 -0.20635986 C66.42720292 0.19133585 68.26861972 0.95187962 71.15112305 3.16113281 C73.80938818 7.14853051 73.43878523 10.63003271 73.42578125 15.25976562 C73.43089218 16.19195923 73.43600311 17.12415283 73.44126892 18.08459473 C73.45520665 21.17788055 73.45420322 24.27094423 73.4519043 27.36425781 C73.45579256 29.52122073 73.4601275 31.67818288 73.46488953 33.83514404 C73.47236334 38.36798576 73.47205469 42.90074964 73.46679688 47.43359375 C73.46103938 53.20644146 73.47783698 58.97896443 73.50114155 64.75175858 C73.51598055 69.21484198 73.51673619 73.67784935 73.51363182 78.14095306 C73.51414122 80.26653429 73.51930643 82.3921202 73.52944374 84.51767731 C73.65189352 113.81785773 66.75460469 137.60919061 46.15112305 159.16113281 C35.03668156 169.74122615 21.73726211 176.02476502 7.15112305 180.16113281 C5.88461914 180.53044922 5.88461914 180.53044922 4.5925293 180.90722656 C0.47215815 181.97220663 -3.35783248 182.23904437 -7.61450195 182.20410156 C-9.08838379 182.19479614 -9.08838379 182.19479614 -10.59204102 182.18530273 C-11.33679688 182.17732666 -12.08155273 182.16935059 -12.84887695 182.16113281 C-12.94228181 159.29997618 -13.01283731 136.43885098 -13.05612564 113.5775423 C-13.07675861 102.96284421 -13.10489332 92.34826462 -13.15063477 81.73364258 C-13.19047996 72.48288606 -13.21630442 63.23221535 -13.22523093 53.9813754 C-13.2304496 49.08223073 -13.24273069 44.18333157 -13.27179718 39.28426552 C-13.29892963 34.67386057 -13.30732634 30.06380248 -13.30130768 25.45332527 C-13.30240889 23.76060858 -13.31037577 22.06788039 -13.32569885 20.3752327 C-13.34559348 18.06441036 -13.34081901 15.75489851 -13.32989502 13.44404602 C-13.33358219 12.15077046 -13.33726936 10.85749491 -13.34106827 9.52502918 C-12.76531208 5.59000616 -11.6242627 3.95292172 -8.84887695 1.16113281 C-5.90804137 -0.30928498 -3.28318906 0.01755059 0 0 Z " fill="#000000" transform="translate(132.848876953125,18.8388671875)"/>
<path d="M0 0 C9.59607795 6.89567411 15.64533217 15.95442032 18.51953125 27.42578125 C20.09168222 40.52703935 17.4900945 52.66923988 9.42578125 63.2109375 C1.1726472 72.80013218 -9.56304122 78.35127226 -22.1484375 79.71484375 C-33.3743698 80.27836479 -44.00568103 76.65711442 -52.5234375 69.29296875 C-53.16925781 68.67679687 -53.81507812 68.060625 -54.48046875 67.42578125 C-55.11597656 66.83023438 -55.75148438 66.2346875 -56.40625 65.62109375 C-65.44545814 56.29154702 -67.83138229 44.5452814 -67.6875 31.98828125 C-67.024106 20.57289777 -61.44509838 10.88265036 -53.23046875 3.05078125 C-38.096124 -9.59145871 -16.39526012 -10.40518083 0 0 Z " fill="#010101" transform="translate(86.48046875,121.57421875)"/>
</svg>
