<?xml version="1.0" encoding="UTF-8"?>
<svg version="1.1" xmlns="http://www.w3.org/2000/svg" width="280" height="280">
<path d="M0 0 C3.97437195 2.00224041 7.79366815 4.18198415 11.59375 6.49609375 C16.35320808 9.36933426 21.07400855 12.1519772 26.09375 14.55859375 C26.09375 15.21859375 26.09375 15.87859375 26.09375 16.55859375 C26.68510742 16.6875 27.27646484 16.81640625 27.88574219 16.94921875 C31.32873913 17.89943109 34.27162316 19.78212074 37.34375 21.55859375 C38.78503907 22.38171564 40.22644869 23.20462646 41.66796875 24.02734375 C42.40321777 24.44886719 43.1384668 24.87039062 43.89599609 25.3046875 C45.98271592 26.49524438 48.07684021 27.67099373 50.17578125 28.83984375 C57.39130162 32.85896098 64.52803613 36.9801815 71.59448242 41.25610352 C76.80814016 44.40566505 82.08764622 47.42977663 87.38671875 50.43359375 C90.15553989 52.01101034 92.90310343 53.62154393 95.64453125 55.24609375 C96.41490723 55.70250244 97.1852832 56.15891113 97.97900391 56.62915039 C99.48665546 57.52430851 100.99289845 58.42184422 102.49755859 59.32202148 C103.18285645 59.72880127 103.8681543 60.13558105 104.57421875 60.5546875 C105.18160889 60.91747803 105.78899902 61.28026855 106.41479492 61.65405273 C108.25620144 62.70805716 108.25620144 62.70805716 111.09375 63.55859375 C111.09375 64.21859375 111.09375 64.87859375 111.09375 65.55859375 C114.06375 66.54859375 114.06375 66.54859375 117.09375 67.55859375 C117.09375 113.75859375 117.09375 159.95859375 117.09375 207.55859375 C112.47375 210.19859375 107.85375 212.83859375 103.09375 215.55859375 C101.155 216.69296875 99.21625 217.82734375 97.21875 218.99609375 C92.31777482 221.85720359 87.4016401 224.69043679 82.46875 227.49609375 C81.7689502 227.89820068 81.06915039 228.30030762 80.34814453 228.71459961 C75.32394064 231.55859375 75.32394064 231.55859375 73.09375 231.55859375 C73.09375 232.21859375 73.09375 232.87859375 73.09375 233.55859375 C72.41570312 233.92210937 71.73765625 234.285625 71.0390625 234.66015625 C66.33193063 237.20278981 61.66616547 239.77985895 57.09375 242.55859375 C52.81667632 245.15442777 48.4603284 247.56068676 44.05859375 249.9375 C40.81771453 251.70952223 37.61079941 253.53420674 34.40625 255.37109375 C33.23049597 256.04431838 32.05471407 256.71749432 30.87890625 257.390625 C28.89904307 258.52430296 26.91954395 259.65859727 24.94091797 260.79443359 C22.74427929 262.05344146 20.54435302 263.30653079 18.34375 264.55859375 C17.65192627 264.95667236 16.96010254 265.35475098 16.24731445 265.76489258 C11.32149705 268.55859375 11.32149705 268.55859375 9.09375 268.55859375 C9.09375 269.21859375 9.09375 269.87859375 9.09375 270.55859375 C0.2910484 275.7427935 0.2910484 275.7427935 -4.15625 275.05859375 C-5.5175 274.31609375 -5.5175 274.31609375 -6.90625 273.55859375 C-8.576875 272.75421875 -8.576875 272.75421875 -10.28125 271.93359375 C-11.1475 271.47984375 -12.01375 271.02609375 -12.90625 270.55859375 C-12.90625 269.89859375 -12.90625 269.23859375 -12.90625 268.55859375 C-13.72738281 268.3265625 -14.54851562 268.09453125 -15.39453125 267.85546875 C-19.63232074 266.29045639 -23.24635941 264.15029583 -27.09375 261.80859375 C-28.6085575 260.90097796 -30.12418268 259.99472545 -31.640625 259.08984375 C-32.37216797 258.65285156 -33.10371094 258.21585937 -33.85742188 257.765625 C-37.32028587 255.72553925 -40.86047081 253.8355113 -44.40234375 251.9375 C-47.94097314 249.98876962 -51.37731613 247.88249603 -54.8125 245.7578125 C-56.98208419 244.42381538 -56.98208419 244.42381538 -59.90625 243.55859375 C-59.90625 242.89859375 -59.90625 242.23859375 -59.90625 241.55859375 C-61.22689453 241.15640625 -61.22689453 241.15640625 -62.57421875 240.74609375 C-65.75259209 239.61335577 -68.33521232 238.29455855 -71.21875 236.55859375 C-72.25257812 235.94242188 -73.28640625 235.32625 -74.3515625 234.69140625 C-74.91520508 234.35270508 -75.47884766 234.01400391 -76.05957031 233.66503906 C-79.55928726 231.56817005 -83.07760383 229.50275195 -86.59375 227.43359375 C-87.69879883 226.78233521 -87.69879883 226.78233521 -88.82617188 226.11791992 C-93.0942648 223.60719213 -97.38503929 221.15145644 -101.7265625 218.76953125 C-106.50097793 216.11707823 -111.22963911 213.3797072 -115.90625 210.55859375 C-117.45628975 209.91808327 -117.45628975 209.91808327 -119.03764343 209.26463318 C-122.39801453 206.09469806 -122.38189718 205.3184567 -122.67488098 200.87220764 C-122.71371523 198.42038971 -122.71893217 195.96790936 -122.69848633 193.51586914 C-122.70825622 192.16378297 -122.72056267 190.8117131 -122.73521423 189.45967102 C-122.76683986 185.78996301 -122.760349 182.12123886 -122.74513459 178.45146108 C-122.73598509 175.38725812 -122.74568561 172.32323552 -122.75547332 169.25904363 C-122.77838531 162.02970527 -122.7707993 154.80084381 -122.7434082 147.5715332 C-122.71560631 140.11505852 -122.73495636 132.65978481 -122.77828389 125.20341116 C-122.81406283 118.79981344 -122.82260968 112.39658592 -122.80889148 105.9929027 C-122.80084636 102.16902666 -122.80263489 98.34582326 -122.82975197 94.52202034 C-122.85389904 90.92553721 -122.84390729 87.33072471 -122.80776405 83.73435783 C-122.79647219 81.78754113 -122.8196402 79.84061992 -122.84384155 77.8939209 C-122.71245636 69.54663947 -122.71245636 69.54663947 -120.3860836 66.69555473 C-118.60264461 65.39430115 -116.91807956 64.45539101 -114.90625 63.55859375 C-113.99101563 63.02234375 -113.07578125 62.48609375 -112.1328125 61.93359375 C-111.27429688 61.47984375 -110.41578125 61.02609375 -109.53125 60.55859375 C-108.57863281 60.04941406 -107.62601563 59.54023437 -106.64453125 59.015625 C-105.74089844 58.53480469 -104.83726563 58.05398437 -103.90625 57.55859375 C-102.50807462 56.79201672 -101.11211944 56.02137197 -99.71875 55.24609375 C-98.65914062 54.65828125 -98.65914062 54.65828125 -97.578125 54.05859375 C-95.33245011 52.79786399 -93.09488269 51.5246976 -90.859375 50.24609375 C-90.1377417 49.83528564 -89.4161084 49.42447754 -88.67260742 49.0012207 C-87.21761445 48.1725823 -85.76460312 47.34045346 -84.3137207 46.50463867 C-79.13085234 43.55859375 -79.13085234 43.55859375 -76.90625 43.55859375 C-76.90625 42.89859375 -76.90625 42.23859375 -76.90625 41.55859375 C-75.99359375 41.06552734 -75.99359375 41.06552734 -75.0625 40.5625 C-69.44759858 37.51559026 -63.8539852 34.43184267 -58.28125 31.30859375 C-57.28218628 30.74906006 -57.28218628 30.74906006 -56.26293945 30.17822266 C-52.54812483 28.08548076 -48.86480722 25.94886025 -45.20703125 23.7578125 C-44.43633301 23.29729492 -43.66563477 22.83677734 -42.87158203 22.36230469 C-41.37810312 21.46653749 -39.88804767 20.56503209 -38.40185547 19.65722656 C-33.2362349 16.55859375 -33.2362349 16.55859375 -29.90625 16.55859375 C-29.90625 15.89859375 -29.90625 15.23859375 -29.90625 14.55859375 C-29.05244751 14.09018066 -29.05244751 14.09018066 -28.18139648 13.61230469 C-25.56850457 12.17835852 -22.95612425 10.74348275 -20.34375 9.30859375 C-19.44849609 8.81746094 -18.55324219 8.32632812 -17.63085938 7.8203125 C-16.75107422 7.33691406 -15.87128906 6.85351562 -14.96484375 6.35546875 C-14.09714355 5.88431641 -13.22944336 5.41316406 -12.33544922 4.92773438 C-10.82958499 4.07900205 -9.34551426 3.18850543 -7.90283203 2.23632812 C-5.0107906 0.34173451 -3.4798869 -0.52853121 0 0 Z " fill="#E30E36" transform="translate(141.90625,2.44140625)"/>
<path d="M0 0 C2.43043573 1.28554297 4.69200918 2.58965147 7 4.0625 C8.32081361 4.88020145 9.64244894 5.6965769 10.96484375 6.51171875 C11.63241699 6.92599121 12.29999023 7.34026367 12.98779297 7.76708984 C16.1430108 9.70034027 19.3477292 11.54301507 22.5625 13.375 C23.65691406 14.00148438 24.75132812 14.62796875 25.87890625 15.2734375 C28.88198353 16.9347143 31.91875178 18.48949335 35 20 C33.73568543 23.7929437 32.70981117 23.95537802 29.22265625 25.73046875 C22.84339176 29.06815606 16.64454992 32.66648118 10.4375 36.3125 C8.31150757 37.55912198 6.18522099 38.80524251 4.05859375 40.05078125 C3.13361084 40.59387939 2.20862793 41.13697754 1.25561523 41.6965332 C-0.14097439 42.50358938 -1.55727972 43.27863986 -3 44 C-3.33 89.21 -3.66 134.42 -4 181 C-7.49080156 180.12729961 -9.61182658 179.23951922 -12.66796875 177.48828125 C-14.00891602 176.72161133 -14.00891602 176.72161133 -15.37695312 175.93945312 C-16.30443359 175.40255859 -17.23191406 174.86566406 -18.1875 174.3125 C-19.09564453 173.79494141 -20.00378906 173.27738281 -20.93945312 172.74414062 C-26.08485059 169.78654996 -31.06328813 166.6941477 -35.9230957 163.28588867 C-38.38509923 161.67873547 -38.38509923 161.67873547 -43 160 C-43 129.31 -43 98.62 -43 67 C-58.32744444 75.84709504 -58.32744444 75.84709504 -73.53320312 84.89453125 C-76.75030463 86.81176243 -79.33124149 88.08281037 -83 89 C-83 73.82 -83 58.64 -83 43 C-74.09 38.05 -74.09 38.05 -65 33 C-53.17725391 26.39374632 -53.17725391 26.39374632 -41.51953125 19.5078125 C-37.98565398 17.39296501 -34.41004041 15.35313426 -30.82177734 13.33203125 C-27.20334459 11.28712593 -23.63514787 9.17739865 -20.08984375 7.0078125 C-18.82515259 6.24537231 -18.82515259 6.24537231 -17.53491211 5.4675293 C-15.87260205 4.46418757 -14.21807819 3.44780603 -12.57250977 2.41723633 C-8.04530759 -0.29204171 -5.25007794 -1.94024619 0 0 Z " fill="#FEFEFE" transform="translate(144,50)"/>
<path d="M0 0 C0 30.36 0 60.72 0 92 C-5.94 95.3 -11.88 98.6 -18 102 C-27.40806693 106.95591464 -27.40806693 106.95591464 -36.3203125 112.75390625 C-38 114 -38 114 -40 114 C-40.44144703 102.19620471 -40.7783956 90.39438851 -40.98443127 78.58400249 C-41.08336163 73.09851615 -41.21731404 67.61869723 -41.43334961 62.13647461 C-41.64080034 56.83855695 -41.75357445 51.54606092 -41.80266762 46.2443943 C-41.83761173 44.22907868 -41.9058758 42.2140409 -42.00887108 40.20105553 C-42.63774898 27.39302382 -42.63774898 27.39302382 -40 22 C-35.36855171 17.21456775 -29.35072996 14.56813837 -23.29746437 12.00823402 C-20.10555386 10.60747551 -17.22302037 8.87883511 -14.25 7.0625 C-13.32960937 6.52625 -12.40921875 5.99 -11.4609375 5.4375 C-9.9005838 4.5260553 -8.34293962 3.60994296 -6.7890625 2.6875 C-2.21657986 0 -2.21657986 0 0 0 Z " fill="#FEFBFC" transform="translate(219,95)"/>
</svg>
